<mxfile host="app.diagrams.net" agent="Mozilla/5.0 (Windows NT 10.0; Win64; x64) AppleWebKit/537.36 (KHTML, like Gecko) Chrome/128.0.0.0 Safari/537.36 OPR/114.0.0.0" version="24.8.4">
  <diagram name="Page-1" id="fZDiD9eq-W5Gjl6CS6La">
    <mxGraphModel dx="961" dy="590" grid="1" gridSize="10" guides="1" tooltips="1" connect="1" arrows="1" fold="1" page="1" pageScale="1" pageWidth="850" pageHeight="1100" math="0" shadow="0">
      <root>
        <mxCell id="0" />
        <mxCell id="1" parent="0" />
        <mxCell id="usyTo0WFLVF-X0Fxhz-0-1" value="" style="rounded=0;whiteSpace=wrap;html=1;" vertex="1" parent="1">
          <mxGeometry x="40" y="40" width="770" height="1030" as="geometry" />
        </mxCell>
        <mxCell id="usyTo0WFLVF-X0Fxhz-0-2" value="" style="rounded=0;whiteSpace=wrap;html=1;" vertex="1" parent="1">
          <mxGeometry x="40" y="40" width="770" height="40" as="geometry" />
        </mxCell>
        <mxCell id="usyTo0WFLVF-X0Fxhz-0-3" value="&lt;font style=&quot;font-size: 16px;&quot;&gt;AppName&lt;/font&gt;" style="text;html=1;align=center;verticalAlign=middle;whiteSpace=wrap;rounded=0;" vertex="1" parent="1">
          <mxGeometry x="60" y="45" width="120" height="30" as="geometry" />
        </mxCell>
        <mxCell id="usyTo0WFLVF-X0Fxhz-0-4" value="&lt;font style=&quot;font-size: 40px;&quot;&gt;Titlu&lt;/font&gt;" style="text;html=1;align=center;verticalAlign=middle;whiteSpace=wrap;rounded=0;" vertex="1" parent="1">
          <mxGeometry x="245" y="120" width="360" height="90" as="geometry" />
        </mxCell>
        <mxCell id="usyTo0WFLVF-X0Fxhz-0-5" value="" style="rounded=0;whiteSpace=wrap;html=1;" vertex="1" parent="1">
          <mxGeometry x="345" y="355" width="160" height="40" as="geometry" />
        </mxCell>
        <mxCell id="usyTo0WFLVF-X0Fxhz-0-11" value="" style="verticalLabelPosition=bottom;verticalAlign=top;html=1;shape=mxgraph.basic.patternFillRect;fillStyle=diag;step=5;fillStrokeWidth=0.2;fillStrokeColor=#dddddd;fillColor=#dae8fc;strokeColor=#6c8ebf;" vertex="1" parent="1">
          <mxGeometry x="175" y="210" width="500" height="110" as="geometry" />
        </mxCell>
        <mxCell id="usyTo0WFLVF-X0Fxhz-0-6" value="&lt;font style=&quot;font-size: 16px;&quot;&gt;Introducere scurta, ar trebui sa arate ceva mai blocky ca sa echilibreze tot (sa se incadreze aici)&lt;/font&gt;" style="text;html=1;align=center;verticalAlign=middle;whiteSpace=wrap;rounded=0;" vertex="1" parent="1">
          <mxGeometry x="180" y="210" width="490" height="110" as="geometry" />
        </mxCell>
        <mxCell id="usyTo0WFLVF-X0Fxhz-0-8" value="Afla zodina ta acum!" style="text;html=1;align=center;verticalAlign=middle;whiteSpace=wrap;rounded=0;" vertex="1" parent="1">
          <mxGeometry x="345" y="360" width="160" height="30" as="geometry" />
        </mxCell>
        <mxCell id="usyTo0WFLVF-X0Fxhz-0-9" value="&lt;font style=&quot;font-size: 10px;&quot;&gt;(acest site este un pamflet si trebuie tratat ca atare)&lt;/font&gt;" style="text;html=1;align=center;verticalAlign=middle;whiteSpace=wrap;rounded=0;" vertex="1" parent="1">
          <mxGeometry x="280" y="390" width="290" height="30" as="geometry" />
        </mxCell>
        <mxCell id="usyTo0WFLVF-X0Fxhz-0-15" value="" style="ellipse;whiteSpace=wrap;html=1;aspect=fixed;" vertex="1" parent="1">
          <mxGeometry x="50" y="45" width="30" height="30" as="geometry" />
        </mxCell>
        <mxCell id="usyTo0WFLVF-X0Fxhz-0-16" value="" style="shape=process;whiteSpace=wrap;html=1;backgroundOutline=1;" vertex="1" parent="1">
          <mxGeometry x="40" y="500" width="770" height="280" as="geometry" />
        </mxCell>
        <mxCell id="usyTo0WFLVF-X0Fxhz-0-18" value="&lt;font style=&quot;font-size: 14px;&quot;&gt;Pentru a-ti afla astrograma natala pe bune, apasa aici (link)&lt;/font&gt;" style="text;html=1;align=center;verticalAlign=middle;whiteSpace=wrap;rounded=0;" vertex="1" parent="1">
          <mxGeometry x="230" y="450" width="390" height="30" as="geometry" />
        </mxCell>
        <mxCell id="usyTo0WFLVF-X0Fxhz-0-19" value="Zodinele" style="shape=table;startSize=30;container=1;collapsible=0;childLayout=tableLayout;strokeColor=default;fontSize=16;" vertex="1" parent="1">
          <mxGeometry x="335" y="540" width="180" height="150" as="geometry" />
        </mxCell>
        <mxCell id="usyTo0WFLVF-X0Fxhz-0-20" value="" style="shape=tableRow;horizontal=0;startSize=0;swimlaneHead=0;swimlaneBody=0;strokeColor=inherit;top=0;left=0;bottom=0;right=0;collapsible=0;dropTarget=0;fillColor=none;points=[[0,0.5],[1,0.5]];portConstraint=eastwest;fontSize=16;" vertex="1" parent="usyTo0WFLVF-X0Fxhz-0-19">
          <mxGeometry y="30" width="180" height="40" as="geometry" />
        </mxCell>
        <mxCell id="usyTo0WFLVF-X0Fxhz-0-21" value="" style="shape=partialRectangle;html=1;whiteSpace=wrap;connectable=0;strokeColor=inherit;overflow=hidden;fillColor=none;top=0;left=0;bottom=0;right=0;pointerEvents=1;fontSize=16;" vertex="1" parent="usyTo0WFLVF-X0Fxhz-0-20">
          <mxGeometry width="60" height="40" as="geometry">
            <mxRectangle width="60" height="40" as="alternateBounds" />
          </mxGeometry>
        </mxCell>
        <mxCell id="usyTo0WFLVF-X0Fxhz-0-22" value="" style="shape=partialRectangle;html=1;whiteSpace=wrap;connectable=0;strokeColor=inherit;overflow=hidden;fillColor=none;top=0;left=0;bottom=0;right=0;pointerEvents=1;fontSize=16;" vertex="1" parent="usyTo0WFLVF-X0Fxhz-0-20">
          <mxGeometry x="60" width="60" height="40" as="geometry">
            <mxRectangle width="60" height="40" as="alternateBounds" />
          </mxGeometry>
        </mxCell>
        <mxCell id="usyTo0WFLVF-X0Fxhz-0-23" value="" style="shape=partialRectangle;html=1;whiteSpace=wrap;connectable=0;strokeColor=inherit;overflow=hidden;fillColor=none;top=0;left=0;bottom=0;right=0;pointerEvents=1;fontSize=16;" vertex="1" parent="usyTo0WFLVF-X0Fxhz-0-20">
          <mxGeometry x="120" width="60" height="40" as="geometry">
            <mxRectangle width="60" height="40" as="alternateBounds" />
          </mxGeometry>
        </mxCell>
        <mxCell id="usyTo0WFLVF-X0Fxhz-0-24" value="" style="shape=tableRow;horizontal=0;startSize=0;swimlaneHead=0;swimlaneBody=0;strokeColor=inherit;top=0;left=0;bottom=0;right=0;collapsible=0;dropTarget=0;fillColor=none;points=[[0,0.5],[1,0.5]];portConstraint=eastwest;fontSize=16;" vertex="1" parent="usyTo0WFLVF-X0Fxhz-0-19">
          <mxGeometry y="70" width="180" height="40" as="geometry" />
        </mxCell>
        <mxCell id="usyTo0WFLVF-X0Fxhz-0-25" value="" style="shape=partialRectangle;html=1;whiteSpace=wrap;connectable=0;strokeColor=inherit;overflow=hidden;fillColor=none;top=0;left=0;bottom=0;right=0;pointerEvents=1;fontSize=16;" vertex="1" parent="usyTo0WFLVF-X0Fxhz-0-24">
          <mxGeometry width="60" height="40" as="geometry">
            <mxRectangle width="60" height="40" as="alternateBounds" />
          </mxGeometry>
        </mxCell>
        <mxCell id="usyTo0WFLVF-X0Fxhz-0-26" value="" style="shape=partialRectangle;html=1;whiteSpace=wrap;connectable=0;strokeColor=inherit;overflow=hidden;fillColor=none;top=0;left=0;bottom=0;right=0;pointerEvents=1;fontSize=16;" vertex="1" parent="usyTo0WFLVF-X0Fxhz-0-24">
          <mxGeometry x="60" width="60" height="40" as="geometry">
            <mxRectangle width="60" height="40" as="alternateBounds" />
          </mxGeometry>
        </mxCell>
        <mxCell id="usyTo0WFLVF-X0Fxhz-0-27" value="" style="shape=partialRectangle;html=1;whiteSpace=wrap;connectable=0;strokeColor=inherit;overflow=hidden;fillColor=none;top=0;left=0;bottom=0;right=0;pointerEvents=1;fontSize=16;" vertex="1" parent="usyTo0WFLVF-X0Fxhz-0-24">
          <mxGeometry x="120" width="60" height="40" as="geometry">
            <mxRectangle width="60" height="40" as="alternateBounds" />
          </mxGeometry>
        </mxCell>
        <mxCell id="usyTo0WFLVF-X0Fxhz-0-28" value="" style="shape=tableRow;horizontal=0;startSize=0;swimlaneHead=0;swimlaneBody=0;strokeColor=inherit;top=0;left=0;bottom=0;right=0;collapsible=0;dropTarget=0;fillColor=none;points=[[0,0.5],[1,0.5]];portConstraint=eastwest;fontSize=16;" vertex="1" parent="usyTo0WFLVF-X0Fxhz-0-19">
          <mxGeometry y="110" width="180" height="40" as="geometry" />
        </mxCell>
        <mxCell id="usyTo0WFLVF-X0Fxhz-0-29" value="" style="shape=partialRectangle;html=1;whiteSpace=wrap;connectable=0;strokeColor=inherit;overflow=hidden;fillColor=none;top=0;left=0;bottom=0;right=0;pointerEvents=1;fontSize=16;" vertex="1" parent="usyTo0WFLVF-X0Fxhz-0-28">
          <mxGeometry width="60" height="40" as="geometry">
            <mxRectangle width="60" height="40" as="alternateBounds" />
          </mxGeometry>
        </mxCell>
        <mxCell id="usyTo0WFLVF-X0Fxhz-0-30" value="" style="shape=partialRectangle;html=1;whiteSpace=wrap;connectable=0;strokeColor=inherit;overflow=hidden;fillColor=none;top=0;left=0;bottom=0;right=0;pointerEvents=1;fontSize=16;" vertex="1" parent="usyTo0WFLVF-X0Fxhz-0-28">
          <mxGeometry x="60" width="60" height="40" as="geometry">
            <mxRectangle width="60" height="40" as="alternateBounds" />
          </mxGeometry>
        </mxCell>
        <mxCell id="usyTo0WFLVF-X0Fxhz-0-31" value="" style="shape=partialRectangle;html=1;whiteSpace=wrap;connectable=0;strokeColor=inherit;overflow=hidden;fillColor=none;top=0;left=0;bottom=0;right=0;pointerEvents=1;fontSize=16;" vertex="1" parent="usyTo0WFLVF-X0Fxhz-0-28">
          <mxGeometry x="120" width="60" height="40" as="geometry">
            <mxRectangle width="60" height="40" as="alternateBounds" />
          </mxGeometry>
        </mxCell>
        <mxCell id="usyTo0WFLVF-X0Fxhz-0-32" value="" style="shape=tableRow;horizontal=0;startSize=0;swimlaneHead=0;swimlaneBody=0;strokeColor=inherit;top=0;left=0;bottom=0;right=0;collapsible=0;dropTarget=0;fillColor=none;points=[[0,0.5],[1,0.5]];portConstraint=eastwest;fontSize=16;" vertex="1" parent="1">
          <mxGeometry x="335" y="700" width="180" height="40" as="geometry" />
        </mxCell>
        <mxCell id="usyTo0WFLVF-X0Fxhz-0-33" value="" style="shape=partialRectangle;html=1;whiteSpace=wrap;connectable=0;strokeColor=default;overflow=hidden;fillColor=default;top=0;left=0;bottom=0;right=0;pointerEvents=1;fontSize=16;" vertex="1" parent="usyTo0WFLVF-X0Fxhz-0-32">
          <mxGeometry width="60" height="40" as="geometry">
            <mxRectangle width="60" height="40" as="alternateBounds" />
          </mxGeometry>
        </mxCell>
        <mxCell id="usyTo0WFLVF-X0Fxhz-0-35" value="" style="shape=partialRectangle;html=1;whiteSpace=wrap;connectable=0;strokeColor=default;overflow=hidden;fillColor=default;top=0;left=0;bottom=0;right=0;pointerEvents=1;fontSize=16;" vertex="1" parent="usyTo0WFLVF-X0Fxhz-0-32">
          <mxGeometry x="120" width="60" height="40" as="geometry">
            <mxRectangle width="60" height="40" as="alternateBounds" />
          </mxGeometry>
        </mxCell>
        <mxCell id="usyTo0WFLVF-X0Fxhz-0-36" value="" style="shape=table;startSize=0;container=1;collapsible=0;childLayout=tableLayout;fontSize=16;columnLines=1;rowLines=0;" vertex="1" parent="1">
          <mxGeometry x="335" y="690" width="180" height="40" as="geometry" />
        </mxCell>
        <mxCell id="usyTo0WFLVF-X0Fxhz-0-37" value="" style="shape=tableRow;horizontal=0;startSize=0;swimlaneHead=0;swimlaneBody=0;strokeColor=inherit;top=0;left=0;bottom=0;right=0;collapsible=0;dropTarget=0;fillColor=none;points=[[0,0.5],[1,0.5]];portConstraint=eastwest;fontSize=16;" vertex="1" parent="usyTo0WFLVF-X0Fxhz-0-36">
          <mxGeometry width="180" height="12" as="geometry" />
        </mxCell>
        <mxCell id="usyTo0WFLVF-X0Fxhz-0-38" value="" style="shape=partialRectangle;html=1;whiteSpace=wrap;connectable=0;strokeColor=inherit;overflow=hidden;fillColor=none;top=0;left=0;bottom=0;right=0;pointerEvents=1;fontSize=16;" vertex="1" parent="usyTo0WFLVF-X0Fxhz-0-37">
          <mxGeometry width="60" height="12" as="geometry">
            <mxRectangle width="60" height="12" as="alternateBounds" />
          </mxGeometry>
        </mxCell>
        <mxCell id="usyTo0WFLVF-X0Fxhz-0-39" value="" style="shape=partialRectangle;html=1;whiteSpace=wrap;connectable=0;strokeColor=inherit;overflow=hidden;fillColor=none;top=0;left=0;bottom=0;right=0;pointerEvents=1;fontSize=16;" vertex="1" parent="usyTo0WFLVF-X0Fxhz-0-37">
          <mxGeometry x="60" width="60" height="12" as="geometry">
            <mxRectangle width="60" height="12" as="alternateBounds" />
          </mxGeometry>
        </mxCell>
        <mxCell id="usyTo0WFLVF-X0Fxhz-0-40" value="" style="shape=partialRectangle;html=1;whiteSpace=wrap;connectable=0;strokeColor=inherit;overflow=hidden;fillColor=none;top=0;left=0;bottom=0;right=0;pointerEvents=1;fontSize=16;" vertex="1" parent="usyTo0WFLVF-X0Fxhz-0-37">
          <mxGeometry x="120" width="60" height="12" as="geometry">
            <mxRectangle width="60" height="12" as="alternateBounds" />
          </mxGeometry>
        </mxCell>
        <mxCell id="usyTo0WFLVF-X0Fxhz-0-41" value="" style="shape=tableRow;horizontal=0;startSize=0;swimlaneHead=0;swimlaneBody=0;strokeColor=inherit;top=0;left=0;bottom=0;right=0;collapsible=0;dropTarget=0;fillColor=none;points=[[0,0.5],[1,0.5]];portConstraint=eastwest;fontSize=16;" vertex="1" parent="usyTo0WFLVF-X0Fxhz-0-36">
          <mxGeometry y="12" width="180" height="16" as="geometry" />
        </mxCell>
        <mxCell id="usyTo0WFLVF-X0Fxhz-0-42" value="" style="shape=partialRectangle;html=1;whiteSpace=wrap;connectable=0;strokeColor=inherit;overflow=hidden;fillColor=none;top=0;left=0;bottom=0;right=0;pointerEvents=1;fontSize=16;" vertex="1" parent="usyTo0WFLVF-X0Fxhz-0-41">
          <mxGeometry width="60" height="16" as="geometry">
            <mxRectangle width="60" height="16" as="alternateBounds" />
          </mxGeometry>
        </mxCell>
        <mxCell id="usyTo0WFLVF-X0Fxhz-0-43" value="" style="shape=partialRectangle;html=1;whiteSpace=wrap;connectable=0;strokeColor=inherit;overflow=hidden;fillColor=none;top=0;left=0;bottom=0;right=0;pointerEvents=1;fontSize=16;" vertex="1" parent="usyTo0WFLVF-X0Fxhz-0-41">
          <mxGeometry x="60" width="60" height="16" as="geometry">
            <mxRectangle width="60" height="16" as="alternateBounds" />
          </mxGeometry>
        </mxCell>
        <mxCell id="usyTo0WFLVF-X0Fxhz-0-44" value="" style="shape=partialRectangle;html=1;whiteSpace=wrap;connectable=0;strokeColor=inherit;overflow=hidden;fillColor=none;top=0;left=0;bottom=0;right=0;pointerEvents=1;fontSize=16;" vertex="1" parent="usyTo0WFLVF-X0Fxhz-0-41">
          <mxGeometry x="120" width="60" height="16" as="geometry">
            <mxRectangle width="60" height="16" as="alternateBounds" />
          </mxGeometry>
        </mxCell>
        <mxCell id="usyTo0WFLVF-X0Fxhz-0-45" value="" style="shape=tableRow;horizontal=0;startSize=0;swimlaneHead=0;swimlaneBody=0;strokeColor=inherit;top=0;left=0;bottom=0;right=0;collapsible=0;dropTarget=0;fillColor=none;points=[[0,0.5],[1,0.5]];portConstraint=eastwest;fontSize=16;" vertex="1" parent="usyTo0WFLVF-X0Fxhz-0-36">
          <mxGeometry y="28" width="180" height="12" as="geometry" />
        </mxCell>
        <mxCell id="usyTo0WFLVF-X0Fxhz-0-46" value="" style="shape=partialRectangle;html=1;whiteSpace=wrap;connectable=0;strokeColor=inherit;overflow=hidden;fillColor=none;top=0;left=0;bottom=0;right=0;pointerEvents=1;fontSize=16;" vertex="1" parent="usyTo0WFLVF-X0Fxhz-0-45">
          <mxGeometry width="60" height="12" as="geometry">
            <mxRectangle width="60" height="12" as="alternateBounds" />
          </mxGeometry>
        </mxCell>
        <mxCell id="usyTo0WFLVF-X0Fxhz-0-47" value="" style="shape=partialRectangle;html=1;whiteSpace=wrap;connectable=0;strokeColor=inherit;overflow=hidden;fillColor=none;top=0;left=0;bottom=0;right=0;pointerEvents=1;fontSize=16;" vertex="1" parent="usyTo0WFLVF-X0Fxhz-0-45">
          <mxGeometry x="60" width="60" height="12" as="geometry">
            <mxRectangle width="60" height="12" as="alternateBounds" />
          </mxGeometry>
        </mxCell>
        <mxCell id="usyTo0WFLVF-X0Fxhz-0-48" value="" style="shape=partialRectangle;html=1;whiteSpace=wrap;connectable=0;strokeColor=inherit;overflow=hidden;fillColor=none;top=0;left=0;bottom=0;right=0;pointerEvents=1;fontSize=16;" vertex="1" parent="usyTo0WFLVF-X0Fxhz-0-45">
          <mxGeometry x="120" width="60" height="12" as="geometry">
            <mxRectangle width="60" height="12" as="alternateBounds" />
          </mxGeometry>
        </mxCell>
        <mxCell id="usyTo0WFLVF-X0Fxhz-0-49" value="&lt;h1 style=&quot;text-align: justify; margin-top: 0px;&quot;&gt;Stiati ca...&lt;/h1&gt;&lt;p style=&quot;text-align: justify;&quot;&gt;&lt;font style=&quot;font-size: 16px;&quot;&gt;Planetele in retrograd (ne uitam la tine, Mercur) nu iti aduc, de fapt, numai catastrofe? Ele ne indeamna sa ne uitam in trecutul nostru si sa invatam lectiile specifice acelei planete. Asa ca nu mai ai o scuza sa dai vina pe Mercur in retrograd daca iti merg toate prost, mai degraba da vina pe tine si fa ceva in legatura cu asta :)&lt;/font&gt;&lt;/p&gt;" style="text;html=1;whiteSpace=wrap;overflow=hidden;rounded=0;" vertex="1" parent="1">
          <mxGeometry x="80" y="820" width="395" height="190" as="geometry" />
        </mxCell>
        <mxCell id="usyTo0WFLVF-X0Fxhz-0-51" value="" style="rounded=0;whiteSpace=wrap;html=1;fillColor=#dae8fc;strokeColor=#6c8ebf;" vertex="1" parent="1">
          <mxGeometry x="560" y="860" width="200" height="140" as="geometry" />
        </mxCell>
        <mxCell id="usyTo0WFLVF-X0Fxhz-0-50" value="&lt;h1 style=&quot;text-align: center; margin-top: 0px;&quot;&gt;&lt;font style=&quot;font-size: 19px;&quot;&gt;Avem si newsletter!&lt;/font&gt;&lt;/h1&gt;&lt;p style=&quot;text-align: justify;&quot;&gt;Vrei un motiv in plus sa faci misto de prietenii tai, sau de tine insuti? Uite-l aici! Inscrie-te acum! (te rog, n-am prieteni, asa ma pot preface ca vorbesc cu oamenii)&lt;/p&gt;" style="text;html=1;whiteSpace=wrap;overflow=hidden;rounded=0;" vertex="1" parent="1">
          <mxGeometry x="570" y="855" width="180" height="135" as="geometry" />
        </mxCell>
      </root>
    </mxGraphModel>
  </diagram>
</mxfile>
